<?xml version="1.0" encoding="utf-8"?>
<!-- Generator: Adobe Illustrator 15.1.0, SVG Export Plug-In . SVG Version: 6.00 Build 0)  -->
<!DOCTYPE svg PUBLIC "-//W3C//DTD SVG 1.1//EN" "http://www.w3.org/Graphics/SVG/1.1/DTD/svg11.dtd">
<svg version="1.1" id="Layer_1" xmlns="http://www.w3.org/2000/svg" xmlns:xlink="http://www.w3.org/1999/xlink" x="0px" y="0px"
	 width="86px" height="86px" viewBox="0 0 86 86" enable-background="new 0 0 86 86" xml:space="preserve">
<g>
	<g>
		<g>
			<path fill="#AAD5DB" d="M24.885,68.102v3.197c1.226,0.915,2.527,1.801,3.923,2.645v-4.129
				C27.419,69.265,26.117,68.69,24.885,68.102z"/>
			<path fill="#AAD5DB" d="M31.365,70.752c3.004,1.06,6.238,1.997,9.67,2.81l0.003,6.044c-3.496-1.225-6.735-2.637-9.673-4.204
				L31.365,70.752z"/>
			<path fill="#AAD5DB" d="M43.597,74.119c3.093,0.654,6.331,1.204,9.676,1.651v7.137c-3.38-0.672-6.614-1.492-9.676-2.452V74.119z"
				/>
			<path fill="#AAD5DB" d="M55.826,76.107c3.145,0.358,6.381,0.622,9.672,0.798l0.002,7.689c-3.322-0.267-6.549-0.681-9.672-1.218
				L55.826,76.107z"/>
		</g>
		<g>
			<path fill="#D2D9D1" d="M24.885,41.132v5.618h3.918v-6.549C27.411,40.499,26.106,40.81,24.885,41.132z"/>
			<path fill="#D2D9D1" d="M41.033,38.205l0,8.544l-9.676,0.002v-7.063C34.295,39.134,37.537,38.637,41.033,38.205z"/>
		</g>
		<g>
			<path fill="#0786A6" d="M24.885,21.201c1.236-0.846,2.539-1.66,3.914-2.438l-0.002-3.595c-1.39,1.087-2.688,2.225-3.912,3.405
				V21.201z"/>
			<path fill="#0786A6" d="M55.813,9.667L55.81,2.982c3.124-0.696,6.353-1.23,9.672-1.576l0.004,7.075
				C62.172,8.745,58.94,9.14,55.813,9.667z"/>
			<path fill="#0786A6" d="M43.583,12.54L43.581,6.76c3.059-1.241,6.296-2.305,9.674-3.17v6.547
				C49.889,10.792,46.658,11.601,43.583,12.54z"/>
			<path fill="#0786A6" d="M31.354,17.392l-0.002-4.109c2.938-2.026,6.181-3.845,9.675-5.427v5.505
				C37.562,14.537,34.328,15.886,31.354,17.392z"/>
		</g>
		<g>
			<path fill="#30ADC2" d="M53.259,14.072l0.002,7.104c-3.374,0.45-6.606,1.007-9.678,1.655V16.53
				C46.645,15.567,49.879,14.745,53.259,14.072z"/>
			<path fill="#30ADC2" d="M24.885,28.905c1.236-0.6,2.539-1.175,3.917-1.726l-0.002-4.137c-1.39,0.842-2.692,1.726-3.914,2.64
				V28.905z"/>
			<path fill="#30ADC2" d="M41.026,17.379l0.004,6.021c-3.471,0.818-6.705,1.762-9.677,2.815v-4.632
				C34.291,20.015,37.532,18.604,41.026,17.379z"/>
		</g>
		<g>
			<path fill="#AFD5F0" d="M24.885,50.651v5.203c1.222,0.323,2.525,0.633,3.918,0.929v-6.134L24.885,50.651z"/>
			<path fill="#AFD5F0" d="M31.362,57.3l-0.002-6.651h9.673l0.002,8.13C37.54,58.348,34.302,57.85,31.362,57.3z"/>
			<path fill="#AFD5F0" d="M55.822,60.105l-0.001-9.46l9.669-0.002l0.006,9.889C62.174,60.438,58.947,60.293,55.822,60.105z"/>
			<path fill="#AFD5F0" d="M43.593,59.075l-0.003-8.426l9.677-0.004l0.004,9.296C49.889,59.704,46.654,59.415,43.593,59.075z"/>
		</g>
		<g>
			<path fill="#AAD5DB" d="M24.885,33.14v3.967c1.25-0.314,2.558-0.61,3.917-0.89v-4.903C27.41,31.896,26.111,32.508,24.885,33.14z"
				/>
			<path fill="#AAD5DB" d="M31.355,30.307c2.937-1.086,6.182-2.059,9.675-2.907v6.906c-3.355,0.396-6.61,0.868-9.673,1.422
				L31.355,30.307z"/>
			<path fill="#AAD5DB" d="M65.489,23.947v8.617c-3.094,0.095-6.351,0.239-9.67,0.442l-0.002-8.218
				C58.938,24.419,62.166,24.129,65.489,23.947z"/>
			<path fill="#AAD5DB" d="M43.583,26.813c3.064-0.664,6.3-1.235,9.678-1.695l0.004,8.056c-3.222,0.224-6.476,0.501-9.677,0.843
				L43.583,26.813z"/>
		</g>
		<g>
			<path fill="#30ADC2" d="M24.885,63.847c1.228,0.629,2.525,1.243,3.923,1.827l-0.003-4.917c-1.395-0.288-2.695-0.584-3.92-0.892
				V63.847z"/>
			<path fill="#30ADC2" d="M31.362,61.251c2.992,0.546,6.236,1.028,9.673,1.447v6.883c-3.495-0.847-6.734-1.817-9.673-2.902V61.251z
				"/>
			<path fill="#30ADC2" d="M43.593,62.981c3.093,0.34,6.325,0.625,9.68,0.856v8.024c-3.384-0.46-6.616-1.03-9.676-1.694
				L43.593,62.981z"/>
		</g>
	</g>
	<rect x="20.5" y="18.573" fill="#0786A6" width="1.76" height="54.116"/>
</g>
</svg>
