<?xml version="1.0" encoding="utf-8"?>
<!-- Generator: Adobe Illustrator 15.1.0, SVG Export Plug-In . SVG Version: 6.00 Build 0)  -->
<!DOCTYPE svg PUBLIC "-//W3C//DTD SVG 1.1//EN" "http://www.w3.org/Graphics/SVG/1.1/DTD/svg11.dtd">
<svg version="1.1" id="Layer_1" xmlns="http://www.w3.org/2000/svg" xmlns:xlink="http://www.w3.org/1999/xlink" x="0px" y="0px"
	 width="100.561px" height="41.595px" viewBox="0 0 100.561 41.595" enable-background="new 0 0 100.561 41.595"
	 xml:space="preserve">
<g>
	<text transform="matrix(1 0 0 1 32.0742 26.5713)"><tspan x="0" y="0" fill="#4D4D4F" font-family="'Ubuntu-Medium'" font-size="18.5">P</tspan><tspan x="9.842" y="0" fill="#4D4D4F" font-family="'Ubuntu-Medium'" font-size="18.5">i</tspan><tspan x="14.171" y="0" fill="#4D4D4F" font-family="'Ubuntu-Medium'" font-size="18.5">x</tspan><tspan x="22.736" y="0" fill="#4D4D4F" font-family="'Ubuntu-Medium'" font-size="18.5">e</tspan><tspan x="32.005" y="0" fill="#4D4D4F" font-family="'Ubuntu-Medium'" font-size="18.5">l</tspan><tspan x="36.371" y="0" fill="#4D4D4F" font-family="'Ubuntu-Medium'" font-size="18.5">W</tspan><tspan x="52.021" y="0" fill="#4D4D4F" font-family="'Ubuntu-Medium'" font-size="18.5">a</tspan><tspan x="60.938" y="0" fill="#4D4D4F" font-family="'Ubuntu-Medium'" font-size="18.5">l</tspan><tspan x="65.304" y="0" fill="#4D4D4F" font-family="'Ubuntu-Medium'" font-size="18.5">l</tspan></text>
	<g>
		<g>
			<g>
				<path fill="#AAD5DB" d="M2.192,33.349v1.599c0.613,0.457,1.264,0.9,1.962,1.322v-2.064C3.46,33.93,2.809,33.643,2.192,33.349z"
					/>
				<path fill="#AAD5DB" d="M5.433,34.674c1.502,0.529,3.119,0.998,4.835,1.404l0.002,3.022c-1.748-0.612-3.368-1.318-4.837-2.103
					V34.674z"/>
				<path fill="#AAD5DB" d="M11.548,36.356c1.546,0.327,3.166,0.603,4.838,0.826v3.568c-1.69-0.336-3.307-0.746-4.838-1.227V36.356z
					"/>
				<path fill="#AAD5DB" d="M17.663,37.351c1.572,0.18,3.19,0.312,4.836,0.399l0.001,3.845c-1.661-0.134-3.274-0.341-4.836-0.609
					L17.663,37.351z"/>
			</g>
			<g>
				<path fill="#D2D9D1" d="M2.192,19.863v2.81h1.959v-3.274C3.455,19.547,2.803,19.702,2.192,19.863z"/>
				<path fill="#D2D9D1" d="M10.267,18.399v4.272l-4.838,0.001v-3.532C6.897,18.864,8.519,18.616,10.267,18.399z"/>
			</g>
			<g>
				<path fill="#0786A6" d="M2.192,9.897c0.618-0.423,1.27-0.83,1.957-1.219L4.148,6.881C3.454,7.425,2.805,7.993,2.192,8.584V9.897
					z"/>
				<path fill="#0786A6" d="M17.657,4.131l-0.002-3.343C19.217,0.44,20.831,0.173,22.491,0l0.002,3.538
					C20.836,3.67,19.22,3.867,17.657,4.131z"/>
				<path fill="#0786A6" d="M11.541,5.567l0-2.89c1.529-0.621,3.148-1.152,4.837-1.585v3.273
					C14.694,4.693,13.079,5.098,11.541,5.567z"/>
				<path fill="#0786A6" d="M5.427,7.993L5.426,5.938c1.469-1.013,3.09-1.922,4.837-2.713v2.752C8.531,6.565,6.914,7.24,5.427,7.993
					z"/>
			</g>
			<g>
				<path fill="#30ADC2" d="M16.379,6.333l0.001,3.552c-1.687,0.226-3.303,0.504-4.839,0.828v-3.15
					C13.072,7.081,14.689,6.67,16.379,6.333z"/>
				<path fill="#30ADC2" d="M2.192,13.75c0.618-0.3,1.27-0.588,1.958-0.863l-0.001-2.068c-0.694,0.421-1.346,0.863-1.957,1.32V13.75
					z"/>
				<path fill="#30ADC2" d="M10.263,7.987l0.002,3.011c-1.735,0.409-3.353,0.881-4.838,1.407V10.09
					C6.896,9.305,8.516,8.6,10.263,7.987z"/>
			</g>
			<g>
				<path fill="#AFD5F0" d="M2.192,24.623v2.602c0.611,0.161,1.263,0.316,1.959,0.464v-3.066L2.192,24.623z"/>
				<path fill="#AFD5F0" d="M5.431,27.947L5.43,24.622h4.836l0.001,4.064C8.52,28.472,6.901,28.223,5.431,27.947z"/>
				<path fill="#AFD5F0" d="M17.661,29.35l0-4.729l4.834-0.001l0.003,4.944C20.837,29.517,19.224,29.444,17.661,29.35z"/>
				<path fill="#AFD5F0" d="M11.546,28.835l-0.001-4.213l4.838-0.002l0.002,4.647C14.694,29.149,13.077,29.005,11.546,28.835z"/>
			</g>
			<g>
				<path fill="#AAD5DB" d="M2.192,15.867v1.983c0.625-0.157,1.279-0.305,1.958-0.444v-2.452
					C3.455,15.245,2.806,15.552,2.192,15.867z"/>
				<path fill="#AAD5DB" d="M5.428,14.451c1.468-0.543,3.091-1.029,4.837-1.454v3.453c-1.677,0.198-3.305,0.435-4.836,0.711
					L5.428,14.451z"/>
				<path fill="#AAD5DB" d="M22.495,11.271v4.309c-1.547,0.048-3.175,0.12-4.835,0.222l-0.001-4.109
					C19.219,11.507,20.833,11.362,22.495,11.271z"/>
				<path fill="#AAD5DB" d="M11.541,12.704c1.532-0.332,3.15-0.618,4.839-0.848l0.002,4.027c-1.611,0.112-3.238,0.251-4.838,0.422
					L11.541,12.704z"/>
			</g>
			<g>
				<path fill="#30ADC2" d="M2.192,31.221c0.614,0.314,1.263,0.622,1.962,0.914l-0.001-2.459c-0.698-0.144-1.347-0.292-1.96-0.445
					V31.221z"/>
				<path fill="#30ADC2" d="M5.431,29.923c1.496,0.273,3.118,0.515,4.836,0.724v3.441c-1.747-0.423-3.367-0.908-4.836-1.451V29.923z
					"/>
				<path fill="#30ADC2" d="M11.546,30.788c1.546,0.17,3.163,0.313,4.84,0.428v4.013c-1.692-0.23-3.308-0.516-4.838-0.848
					L11.546,30.788z"/>
			</g>
		</g>
		<rect y="8.584" fill="#0786A6" width="0.88" height="27.058"/>
	</g>
</g>
</svg>
